<?xml version="1.0" encoding="UTF-8"?>
<svg width="400px" height="400px" viewBox="0 0 400 400" version="1.1" xmlns="http://www.w3.org/2000/svg" xmlns:xlink="http://www.w3.org/1999/xlink">
    <!-- Generator: Sketch 52.5 (67469) - http://www.bohemiancoding.com/sketch -->
    <title>Artboard Copy 5</title>
    <desc>Created with Sketch.</desc>
    <g id="Artboard-Copy-5" stroke="none" stroke-width="1" fill="none" fill-rule="evenodd">
        <rect fill="#FFF8F8" x="0" y="0" width="400" height="400"></rect>
        <g id="Artboard-1-copy-4" transform="translate(85.000000, 85.000000)">
            <rect id="Rectangle" fill="#FFF8F8" transform="translate(115.000000, 115.000000) rotate(-180.000000) translate(-115.000000, -115.000000) " x="0" y="0" width="230" height="230"></rect>
            <path d="M48.0277595,174 C56.2634691,174 61,178.146597 61,185.503169 C61,193.232571 56.2634691,197.715624 48.0277595,197.715624 L42.1869251,197.715624 L42.1869251,207 L34,207 L34,178.546707 C34,176.03563 35.9855965,174 38.434954,174 L48.0277595,174 Z M42.1869251,191.131992 L47.6153088,191.131992 C51.2031866,191.131992 53.2743101,189.290576 53.2743101,185.803252 C53.2743101,182.315927 51.2031866,180.615459 47.6153088,180.615459 L42.1869251,180.615459 L42.1869251,191.131992 Z" id="Shape" fill="#FF6357" fill-rule="nonzero"></path>
            <path d="M66.1865395,207 L66.1865395,186.140909 C66.1865395,183.630524 68.0846433,181.595455 70.4260731,181.595455 L73.7498675,181.595455 L73.7498675,207 L66.1865395,207 Z M70.0021198,178.577273 L66,178.577273 L66,174.290909 C66,171.921105 67.7918101,170 70.0021198,170 C72.2107737,170.002509 74.0000012,171.922879 74,174.290909 C74,176.658202 72.2100881,178.577273 70.0021198,178.577273 Z" id="Shape" fill="#FF6357" fill-rule="nonzero"></path>
            <path d="M102.862807,186.692427 L97.1714918,190.227938 C96.0422055,188.539585 94.1631184,187.547941 92.1705698,187.588818 C89.0726535,187.588818 86.9837728,190.182436 86.9837728,194.00461 C86.9837728,197.922338 89.0947815,200.470453 92.1705698,200.470453 C94.4187719,200.470453 96.153605,199.52401 97.2201733,197.590172 L103,201.084731 C100.981929,204.811351 96.9900424,207 91.7589895,207 C84.1381154,207 79,201.808214 79,194.068312 C79,186.237407 84.186797,181.000119 91.8342246,181.000119 C96.7554859,180.981918 100.703116,183.056812 102.862807,186.692427 Z" id="Path" fill="#FF6357"></path>
            <path d="M131,190.133426 L131,206.62057 L123.187291,206.62057 L123.187291,203.720639 C121.568562,205.875261 118.93311,207 115.557414,207 C110.237458,207 107,203.720639 107,199.081654 C107,194.302641 110.375697,191.493051 116.574136,191.44788 L123.138239,191.44788 L123.138239,191.072967 C123.138239,188.588603 121.519509,187.088951 118.282051,187.088951 C116.204013,187.088951 113.474916,187.838777 110.839465,189.198402 L108.574136,183.859277 C112.458194,182.029882 115.972129,181 120.132664,181 C126.977703,181 130.955407,184.419388 131,190.133426 Z M123.138239,198.051772 L123.138239,195.793259 L118.09922,195.793259 C115.695652,195.793259 114.491639,196.637943 114.491639,198.503475 C114.491639,200.369006 115.784838,201.498263 118.005574,201.498263 C120.502787,201.516331 122.629877,200.111536 123.138239,198.051772 Z" id="Shape" fill="#FF6357" fill-rule="nonzero"></path>
            <path d="M163,206.666782 L155.023634,206.666782 L155.023634,203.350594 C153.274573,205.726565 150.496488,207.086798 147.579025,206.995698 C140.595273,206.995698 136,201.764591 136,193.960735 C136,186.251499 140.55096,181.160069 147.397341,181.160069 C150.658789,181.160069 153.277696,182.466719 155.023634,184.800667 L155.023634,176.50569 C155.023634,174.017266 157.007601,172 159.454948,172 L163,172 L163,206.666782 Z M155.023634,194.145468 C155.023634,190.270575 152.807976,187.607712 149.511078,187.607712 C146.21418,187.607712 143.998523,190.270575 143.949778,194.145468 C143.998523,198.024868 146.200886,200.737294 149.511078,200.737294 C152.82127,200.737294 155.023634,198.024868 155.023634,194.145468 Z" id="Shape" fill="#FF6357" fill-rule="nonzero"></path>
            <path d="M196,193.977249 C196,201.80819 190.589391,207 182.522102,207 C174.454813,207 169,201.80819 169,193.977249 C169,186.146307 174.406189,181 182.522102,181 C190.638016,181 196,186.141757 196,193.977249 Z M176.992141,194.068253 C176.992141,198.031502 179.237721,200.675184 182.539784,200.675184 C185.841847,200.675184 188.038802,198.031502 188.038802,194.068253 C188.038802,190.105005 185.793222,187.465873 182.539784,187.465873 C179.286346,187.465873 176.97446,190.155058 176.97446,194.068253 L176.992141,194.068253 Z" id="Shape" fill="#FF6357" fill-rule="nonzero"></path>
            <path d="M78.412454,104.58681 C81.9285496,108.101851 87.6281408,108.101851 91.1442364,104.58681 L118.453639,77.2773547 C119.164311,76.5679505 119.563668,75.6050303 119.563668,74.600884 C119.563668,73.5967377 119.164311,72.6338175 118.453639,71.9244133 L117.445181,70.9114513 C116.735009,70.2005055 115.771346,69.8010353 114.766465,69.8010353 C113.761584,69.8010353 112.79792,70.2005055 112.087748,70.9114513 L78.412454,104.58681 Z M104.425268,105.842883 C106.113967,107.53227 108.404745,108.481415 110.79341,108.481415 C113.182075,108.481415 115.472854,107.53227 117.161553,105.842883 L132.090333,90.9140742 C132.801277,90.2039009 133.200747,89.2402355 133.200747,88.2353525 C133.200747,87.2304694 132.801277,86.266804 132.090333,85.5566307 L131.077373,84.5436687 C129.598944,83.0661162 127.20287,83.0661162 125.724442,84.5436687 L104.425268,105.842883 Z M162.254032,136.254253 C188.581989,109.921743 188.581989,67.080204 162.254032,40.7476941 C135.926075,14.4151843 93.0801156,14.4196864 66.7476563,40.7476941 C40.4151969,67.0757019 40.419699,109.921743 66.7476563,136.254253 C93.1399456,162.581916 135.861743,162.581916 162.254032,136.254253 Z M145.020205,51.7732227 C131.707486,41.581594 112.905605,42.8232483 101.048735,54.6770471 L57.3248767,98.2344129 C57.2123256,98.3469642 57.1087786,98.4550135 57.0052316,98.5720669 C52.7577803,74.2879364 64.2228791,49.9532342 85.6530665,37.7669626 C107.083254,25.5806911 133.858609,28.1699673 152.556628,44.2367854 L145.020205,51.7732227 Z M151.363586,58.1616363 L158.913515,50.616195 C178.483903,73.5271443 177.439429,108.11642 155.762084,129.775798 C141.677457,143.862525 121.381753,149.794349 101.927815,145.509935 C82.4738773,141.225521 66.5477943,127.316436 59.6839482,108.616148 L107.419128,61.0384484 C116.958242,51.4993158 132.424202,51.4993158 141.963317,61.0384484 C151.502431,70.577581 151.502431,86.0435708 141.963317,95.5827035 L132.473007,105.073032 C134.161706,106.762418 136.452484,107.711563 138.841149,107.711563 C141.229814,107.711563 143.520592,106.762418 145.209291,105.073032 L148.410245,101.872072 C160.133404,90.0668709 161.393962,71.4385793 151.368088,58.1616363 L151.363586,58.1616363 Z" id="Shape" fill="#FF6357"></path>
        </g>
    </g>
</svg>