<?xml version="1.0" encoding="UTF-8"?>
<svg width="148px" height="34px" viewBox="0 0 148 34" version="1.1" xmlns="http://www.w3.org/2000/svg" xmlns:xlink="http://www.w3.org/1999/xlink">
    <!-- Generator: Sketch 52.5 (67469) - http://www.bohemiancoding.com/sketch -->
    <title>logo-inverse-234x82</title>
    <desc>Created with Sketch.</desc>
    <g id="Page-1" stroke="none" stroke-width="1" fill="none" fill-rule="evenodd">
        <g id="Artboard-Copy-5" transform="translate(-117.000000, -77.000000)" fill="#FF6357">
            <g id="logo-inverse-234x82" transform="translate(117.000000, 76.000000)">
                <g id="Group" transform="translate(0.000000, 1.000000)" fill-rule="nonzero">
                    <g id="Artboard-1-copy-2">
                        <path d="M7.67741935,21.2401015 C8.52082741,22.167278 9.88799196,22.167278 10.7314,21.2401015 L17.2821237,14.0365753 C17.4525929,13.8494529 17.5483871,13.5954595 17.5483871,13.3305917 C17.5483871,13.065724 17.4525929,12.8117306 17.2821237,12.6246082 L17.0402243,12.3574151 C16.8698749,12.169886 16.6387203,12.0645161 16.3976788,12.0645161 C16.1566374,12.0645161 15.9254828,12.169886 15.7551334,12.3574151 L7.67741935,21.2401015 Z M14.2580645,21.2422274 C14.7086166,21.6861024 15.3198059,21.9354839 15.9571118,21.9354839 C16.5944177,21.9354839 17.205607,21.6861024 17.6561591,21.2422274 L21.6392208,17.3197829 C21.8289037,17.1331896 21.9354839,16.879993 21.9354839,16.6159667 C21.9354839,16.3519404 21.8289037,16.0987437 21.6392208,15.9121505 L21.3689587,15.6460015 C20.9745078,15.2577844 20.335225,15.2577844 19.9407741,15.6460015 L14.2580645,21.2422274 Z M29.0269414,4.97349334 C22.3961966,-1.65839803 11.6053624,-1.65726417 4.9734838,4.97349334 C-1.65839484,11.6042508 -1.657261,22.3951057 4.9734838,29.0269971 C11.6204307,35.6576676 22.3799945,35.6576676 29.0269414,29.0269971 C35.6576862,22.3951057 35.6576862,11.6053847 29.0269414,4.97349334 Z M24.4408314,7.7386965 C21.1088525,5.12468847 16.4030165,5.44315514 13.4354152,8.48348622 L2.49197276,19.655332 C2.46380286,19.6841998 2.43788655,19.711913 2.41197024,19.7419355 C1.35118494,13.5152065 4.22030744,7.27652842 9.58187168,4.15155665 C14.9434359,1.02658489 21.6424324,1.68851324 26.3225806,5.80570736 L24.4408314,7.7386965 Z M26.393076,9.56878026 L28.2956156,7.67741935 C33.2272434,13.4203404 32.9640418,22.0905825 27.5014727,27.5197814 C23.9522259,31.0507988 18.8378225,32.5376859 13.9355396,31.463743 C9.03325662,30.3898 5.01997322,26.903311 3.29032258,22.2158457 L15.3193195,10.2898898 C16.8743076,8.7431161 19.140752,8.13903219 21.2649051,8.70519067 C23.3890582,9.27134915 25.0482107,10.9217371 25.6173758,13.0346693 C26.1865409,15.1476015 25.579249,17.4020733 24.0242609,18.948847 L21.6327561,21.3277186 C22.0582988,21.7511848 22.635562,21.9891001 23.2374922,21.9891001 C23.8394223,21.9891001 24.4166855,21.7511848 24.8422282,21.3277186 L25.6488506,20.5253573 C28.6030207,17.5662334 28.9206744,12.896815 26.3942105,9.56878026 L26.393076,9.56878026 Z" id="Shape"></path>
                    </g>
                </g>
                <g id="Picado" transform="translate(43.000000, 0.000000)" font-family="Montserrat-Black, Montserrat" font-size="28" font-weight="700">
                    <text>
                        <tspan x="0.976" y="27">Picado</tspan>
                    </text>
                </g>
            </g>
        </g>
    </g>
</svg>